<svg id="Layer_4" data-name="Layer 4" xmlns="http://www.w3.org/2000/svg" viewBox="0 0 459.02 468.5"><defs><style>.cls-1{fill:#fff;}.cls-2{fill:#010101;}</style></defs><title>drum</title><ellipse class="cls-1" cx="229.51" cy="234.25" rx="229.51" ry="234.25"/><path class="cls-2" d="M321,216.55c-1.15,1.64-.64,3.45-.64,5.13-.05,16.46,0,32.93-.05,49.39,0,6.22-.58,6.73-6.85,6.81-10.76.14-10.77.14-10.77-10.46q0-40.79,0-81.58c0-6.79.53-7.37,7.26-7.32,16.8.14,12.94-2,19.36,12.66,7.68,17.49,15.09,35.11,22.67,52.65.54,1.22.56,3.36,2.39,3.2,1.34-.12,1.5-2,2-3.19,8.65-20,17.36-39.9,25.81-59.94,1.7-4,4.07-5.75,8.35-5.44,3.07.23,6.17,0,9.26.06,5.16.1,5.89.77,5.9,5.92q.06,28.67,0,57.33c0,10.14-.12,20.29,0,30.43.07,4.21-1.69,5.73-5.78,5.72-13.39,0-11.83.48-11.87-11.49-.05-14.85,0-29.69,0-44.54,0-1.73.33-3.52-.62-5.62-1.71,1.55-2.13,3.59-2.88,5.35-7.13,16.78-14.35,33.52-21.19,50.41-1.79,4.41-4.27,6-8.9,6s-7.59-.87-9.53-5.72c-7-17.47-14.43-34.75-21.75-52.08C322.64,218.93,322.55,217.31,321,216.55Z" transform="translate(0 0)"/><path class="cls-2" d="M51.92,228.5q0-21.37,0-42.75c0-6,.67-6.71,6.59-6.61,12,.2,24.13-1.08,36.08.81,25.62,4.07,42.68,24.42,42.06,49.72-.61,24.72-19,44.38-44.33,47.43-11.86,1.43-23.76.6-35.65.8-4.07.07-4.79-2.41-4.77-5.78C52,257.58,51.92,243,51.92,228.5Zm29.4-32.63c-2.2,0-4.41,0-6.61,0-3.44-.08-5.17,1.44-5.16,5q0,27.76,0,55.54c0,3.35,1.64,4.73,4.89,4.78a113.42,113.42,0,0,0,16.27-.83c13-1.67,22.15-8.44,26.37-21,4.32-12.82,1.75-24.41-7.74-34.16C101.67,197.36,91.71,195.85,81.32,195.87Z" transform="translate(0 0)"/><path class="cls-2" d="M288.38,216.13c-.49,9.67,1,21.46-.84,33.15-4.18,27-34,39.19-56,22.83-7.91-5.9-11.48-14.29-12.81-23.79-1.5-10.82-.66-21.71-.78-32.58-.12-10.43.09-20.86-.06-31.29-.07-4.38,1.76-5.94,6-6,11.6-.16,11.46-.29,11.63,11.37.28,18.8-1,37.63.8,56.39,1.05,10.73,7.59,16.36,17.81,16,7.78-.27,13.43-4.92,15.3-12.77a50.32,50.32,0,0,0,1.25-11.81q-.06-26.22,0-52.46c0-6.08.53-6.58,6.48-6.67,11.13-.19,11.13-.19,11.13,10.87Z" transform="translate(0 0)"/><path class="cls-2" d="M159.39,179.16c6,0,12.05-.1,18,1.13,14.13,2.91,24.45,13.74,26.14,27.52,1.8,14.64-4.94,27.13-18.42,33.41-3.58,1.66-3.87,3.07-1.49,6.09,6.71,8.56,13.21,17.29,19.73,26,.82,1.09,2.45,2.17,1.46,3.8-.77,1.29-2.39.84-3.67.89-16,.56-16,.55-25.61-12.31q-12.15-16.23-24.32-32.47c-.77-1-2.14-2.08-1.61-3.43.66-1.71,2.52-1.13,3.91-1.16,6-.14,12.05.18,18-.81,8.72-1.45,14.33-7.26,14.49-15.16.18-8.35-4.53-14.2-13.4-16-7.4-1.53-14.95-.56-22.43-.72-6.92-.14-7.27-.41-7.3-7.22,0-9.53,0-9.53,9.42-9.54Z" transform="translate(0 0)"/><path class="cls-2" d="M156.92,271.21A6.44,6.44,0,0,1,150,278a6.73,6.73,0,0,1-6.79-6.58,7.32,7.32,0,0,1,6.89-7.14A6.73,6.73,0,0,1,156.92,271.21Z" transform="translate(0 0)"/></svg>