<?xml version="1.0" encoding="utf-8"?>
<!-- Generator: Adobe Illustrator 24.0.0, SVG Export Plug-In . SVG Version: 6.00 Build 0)  -->
<svg version="1.1" id="Layer_4" xmlns="http://www.w3.org/2000/svg" xmlns:xlink="http://www.w3.org/1999/xlink" x="0px" y="0px"
	 viewBox="0 0 459 468.5" style="enable-background:new 0 0 459 468.5;" xml:space="preserve">
<style type="text/css">
	.st0{fill:#FFB340;}
	.st1{fill:#090602;}
</style>
<ellipse class="st0" cx="229.5" cy="234.3" rx="229.5" ry="234.3"/>
<g>
	<path class="st1" d="M263.8,415.1c-1.3,4.7-17.3,1.8-6.7,14c-5.7,2.2-11.1,3-16.4,2.7c-20.5-1-41-1.8-60.4-9.6
		c-11-4.4-11.9-8.8-4.3-18c3.4-4.2,6-8.6,6-14c0-7.1-1.8-11.6-10.5-13c-45-7.1-82.2-30.9-118.6-56.4c-1.6-1.1-3-2.6-4.2-4.1
		c-1.8-2.2-4.3-4.5-3.2-7.7c1.3-3.7,4.9-3.9,8.2-4.1c4.2-0.2,8.3,0,12.5-0.1c-7.1-12.6-5.7-15.3,9.6-15.5
		c37.7-0.4,73.7-7.8,106.5-27.1c23.9-14.1,43.9-32,49.7-60.7c4-19.6,0.9-38.9-7-57.2c-6.1-14.1-8.9-28.7-6.4-43.8
		C222.7,75.3,243,57,269.2,54c20.9-2.4,43.8,11.9,53.2,33.8c2.2,5,5.3,7.9,10,9.7c14,5.5,28.5,6.3,43.2,4.3c5.2-0.7,11-2.8,13.7,3.4
		c2.8,6.2-2,10.3-6.2,13.9c-18.6,15.9-40.2,23.4-64.5,23.8c-19.6,0.3-24,5.5-21.9,24.9c1.4,13.3,7.2,24.9,13.8,36.1
		c6.7,11.5,14.2,22.6,20.3,34.4c33,63.9-1.1,130.1-72.2,141c-16.5,2.5-33.1,2.8-49.6,1.7c-8-0.5-9.5,3.3-9.6,9.6
		c-0.1,6.7,2,10.2,9.8,9.3c13.3-1.6,26.6-0.5,39.9,0.7c2.3,0.2,5.5-1.3,4,4.5C251.3,413,261.6,408.8,263.8,415.1z M288.7,120
		c6.5-0.8,10.5-4.4,10.4-10.8c-0.1-6.9-4.1-11-11.2-10.7c-7,0.3-10.6,4.6-10.2,11.6C278.2,116.7,282.5,119.6,288.7,120z"/>
</g>
</svg>
