<?xml version="1.0" encoding="utf-8"?>
<!-- Generator: Adobe Illustrator 24.0.0, SVG Export Plug-In . SVG Version: 6.00 Build 0)  -->
<svg version="1.1" id="Layer_1" xmlns="http://www.w3.org/2000/svg" xmlns:xlink="http://www.w3.org/1999/xlink" x="0px" y="0px"
	 viewBox="0 0 459 468.5" style="enable-background:new 0 0 459 468.5;" xml:space="preserve">
<style type="text/css">
	.st0{fill:#00456C;}
	.st1{fill:#ED5338;}
</style>
<g id="Layer_4">
	<ellipse class="st0" cx="229.5" cy="234.3" rx="229.5" ry="234.3"/>
</g>
<g id="Layer_2_1_">
	<g id="Layer_1-2">
		<polygon class="st1" points="53.4,195 53.4,255.2 63.5,255.2 63.5,229.5 88.1,229.5 88.1,219.8 63.5,219.8 63.5,204.8 89,204.8 
			89,195 		"/>
		<path class="st1" d="M159,215.4c0.2-5.2-1.7-10.3-5.4-14c-4.6-4.4-10.7-6.7-17-6.4h-23.2v60.2h10.2v-50.5h13.6
			c5.8-0.4,10.8,3.9,11.2,9.7c0,0.1,0,0.2,0,0.2c0.2,2.5-0.7,5-2.4,6.8c-2.3,2.5-4.8,4-14.4,4h-1.5l19.2,29.7h11.3l-15.2-22.8
			c7.9-1.8,13.5-8.7,13.6-16.8"/>
		<rect x="186" y="195" class="st1" width="10.1" height="60.2"/>
		<path class="st1" d="M268.1,224.5c0.2,5.5-1.9,10.9-5.8,14.9c-3.8,4-9,6.2-14.5,6.2h-12.6v-40.7h10.9c5.5-0.2,10.5,1.7,14.4,4.9
			C264.9,213.2,267.7,218.5,268.1,224.5 M225.5,195v60.2h22.5c7.2,0,13.8-2.5,18.9-6.7c6.8-5.5,11.1-13.9,11.1-23.3
			c-0.1-9.5-4.6-18-11.5-23.5c-5.3-4.2-10.8-6.7-18.1-6.6c-0.6,0-2.5,0-3.1,0H225.5z"/>
		<polygon class="st1" points="315.5,195 290.3,255.2 301.6,255.2 319.8,209.7 337.3,254.8 337.4,255.2 348.4,255.2 324.7,195 		"/>
		<polygon class="st1" points="396,195 380.3,223.2 364.7,195 353.8,195 375.3,234.8 375.3,255.2 385.4,255.2 385.4,234.8 
			407.1,195 		"/>
	</g>
</g>
</svg>
