<?xml version="1.0" encoding="utf-8"?>
<!-- Generator: Adobe Illustrator 24.0.0, SVG Export Plug-In . SVG Version: 6.00 Build 0)  -->
<svg version="1.1" id="Layer_1" xmlns="http://www.w3.org/2000/svg" xmlns:xlink="http://www.w3.org/1999/xlink" x="0px" y="0px"
	 viewBox="0 0 24 24" style="enable-background:new 0 0 24 24;" xml:space="preserve">
<style type="text/css">
	.st0{fill:#FFFFFF;}
</style>
<g>
	<path class="st0" d="M24,13.6c0,3.5,0,7.1,0,10.6c-8,0-16,0-24,0c0-3.8,0-7.6,0-11.3c0,0,0,0.1,0,0.1c0,0.3,0,0.6,0.1,0.9
		c0.1,0.5,0.1,1,0.3,1.5c0.3,1.1,0.6,2.1,1.2,3c0.5,0.8,1,1.6,1.7,2.3c0.5,0.6,1.2,1.1,1.8,1.6c0.6,0.4,1.1,0.7,1.8,1
		c0.4,0.2,0.9,0.4,1.3,0.5c0.1,0,0.3,0.1,0.4,0.1c0.1,0,0.2,0,0.3-0.1C9,23.7,9,23.5,9,23.3c0,0,0-0.1,0-0.1c0-0.4,0-0.8,0-1.2
		c0-0.3,0-0.5,0-0.8c0,0,0-0.1,0-0.1c0-0.1,0-0.1-0.1-0.1c-0.1,0-0.1,0-0.2,0c-0.3,0.1-0.7,0.1-1,0.1c-0.3,0-0.6,0-1-0.1
		C6.4,21,6,20.9,5.7,20.6c-0.3-0.2-0.5-0.5-0.7-0.9c0-0.1-0.1-0.2-0.2-0.4c-0.1-0.2-0.2-0.5-0.4-0.7c-0.1-0.2-0.3-0.4-0.4-0.5
		C4,18.1,3.9,18,3.7,17.9c-0.1,0-0.2-0.1-0.2-0.2c-0.1-0.1-0.2-0.2-0.2-0.3c0,0,0-0.1,0-0.1c0-0.1,0-0.1,0-0.1c0,0,0.1,0,0.1-0.1
		c0.1,0,0.2,0,0.2,0c0.1,0,0.3,0,0.4,0c0.1,0,0.2,0.1,0.3,0.1c0.2,0.1,0.4,0.2,0.6,0.4c0.3,0.2,0.5,0.5,0.6,0.8
		C5.7,18.6,5.8,18.8,6,19c0.2,0.2,0.5,0.4,0.7,0.6c0.2,0.1,0.4,0.2,0.6,0.2c0.2,0,0.5,0,0.7,0c0.3,0,0.6-0.1,0.9-0.2
		c0,0,0.1,0,0.1,0c0,0,0,0,0-0.1c0,0,0,0,0-0.1c0-0.1,0-0.2,0.1-0.3c0.1-0.4,0.3-0.8,0.6-1.1c0,0,0,0,0-0.1c0,0,0,0-0.1,0
		c-0.2,0-0.5-0.1-0.7-0.1c-0.3-0.1-0.6-0.1-0.9-0.2c-0.6-0.2-1.1-0.4-1.6-0.7c-0.6-0.4-1.1-0.9-1.5-1.6c-0.3-0.7-0.5-1.3-0.6-2.1
		c0-0.3-0.1-0.6-0.1-1c0-0.3,0-0.6,0-1c0.1-0.9,0.5-1.7,1.1-2.4c0,0,0,0,0-0.1c0,0,0-0.1,0-0.1c0,0,0-0.1,0-0.1
		c-0.1-0.3-0.2-0.7-0.2-1c0-0.2,0-0.5,0-0.7c0.1-0.4,0.2-0.8,0.3-1.1c0-0.1,0.1-0.1,0.1-0.1c0.1,0,0.2,0,0.3,0
		c0.2,0,0.4,0.1,0.6,0.1C7,5.6,7.2,5.7,7.4,5.8C7.8,6,8.2,6.2,8.6,6.4C8.7,6.5,8.8,6.6,9,6.6c0,0,0.1,0,0.2,0c0,0,0,0,0,0
		c0.4-0.1,0.8-0.2,1.3-0.3c0.4-0.1,0.8-0.1,1.1-0.1c0.2,0,0.4,0,0.7,0c0.3,0,0.6,0,0.8,0c0.4,0,0.7,0.1,1.1,0.1
		c0.3,0.1,0.5,0.1,0.8,0.2c0.1,0,0.1,0,0.2,0c0,0,0,0,0.1,0c0.2-0.1,0.3-0.2,0.5-0.3C16.1,6,16.6,5.8,17,5.6
		c0.2-0.1,0.4-0.1,0.6-0.2c0.2,0,0.3-0.1,0.5-0.1c0.1,0,0.1,0,0.2,0c0,0,0.1,0,0.1,0.1c0,0,0,0.1,0,0.1c0,0.1,0.1,0.2,0.1,0.3
		c0.1,0.4,0.2,0.9,0.2,1.3c0,0.4-0.1,0.9-0.2,1.3c0,0,0,0,0,0.1c0,0,0,0.1,0,0.1c0,0,0.1,0.1,0.1,0.1c0.7,0.8,1.1,1.8,1.1,2.9
		c0,0.2,0,0.5,0,0.7c0,0.3,0,0.7-0.1,1c-0.1,0.6-0.3,1.3-0.6,1.8c-0.2,0.4-0.5,0.8-0.9,1.1c-0.3,0.3-0.7,0.5-1.1,0.7
		c-0.5,0.3-1.1,0.4-1.7,0.6c-0.3,0.1-0.6,0.1-1,0.2c0,0-0.1,0-0.1,0c0,0,0,0,0,0.1c0.1,0.1,0.2,0.2,0.2,0.3c0.2,0.3,0.3,0.6,0.4,0.9
		c0.1,0.3,0.1,0.7,0.1,1c0,1.1,0,2.1,0,3.2c0,0.1,0,0.1,0,0.2c0,0.1,0,0.2,0.1,0.2c0.1,0.2,0.2,0.3,0.4,0.3c0.1,0,0.3,0,0.4,0
		c0.1,0,0.2-0.1,0.4-0.1c0.6-0.2,1.2-0.5,1.7-0.8c0.6-0.3,1.1-0.7,1.7-1.1c0.4-0.4,0.9-0.8,1.2-1.2c0.3-0.3,0.6-0.7,0.8-1
		c0.4-0.6,0.8-1.2,1.1-1.8c0.3-0.6,0.5-1.2,0.7-1.8c0.2-0.6,0.3-1.3,0.4-2C23.9,13.9,24,13.8,24,13.6C24,13.7,24,13.6,24,13.6z"/>
	<path class="st0" d="M24,11.4C24,11.4,24,11.3,24,11.4c0-0.2-0.1-0.3-0.1-0.4c-0.1-0.7-0.2-1.5-0.5-2.2c-0.2-0.6-0.5-1.3-0.8-1.9
		c-0.5-1-1.1-1.8-1.9-2.6C20,3.4,19,2.6,17.9,2c-0.6-0.4-1.3-0.7-2-0.9c-0.8-0.3-1.6-0.5-2.4-0.6c-0.3,0-0.5-0.1-0.8-0.1
		c-0.4,0-0.8,0-1.1,0c-0.4,0-0.8,0-1.2,0.1C10,0.6,9.6,0.7,9.2,0.8C8.6,1,7.9,1.2,7.3,1.4C6.5,1.8,5.7,2.2,4.9,2.8
		C4.5,3.1,4,3.5,3.5,4C3.1,4.4,2.6,5,2.2,5.5C1.9,6,1.6,6.6,1.3,7.1C0.9,7.9,0.6,8.7,0.4,9.6c-0.1,0.5-0.2,1-0.3,1.5
		C0.1,11.4,0,11.7,0,12c0,0,0,0.1,0,0.1c0,0,0,0,0,0.1c0-4,0-8,0-11.9c8,0,16,0,24,0C24,3.9,24,7.6,24,11.4z"/>
</g>
</svg>
