<?xml version="1.0" encoding="utf-8"?>
<!-- Generator: Adobe Illustrator 24.0.0, SVG Export Plug-In . SVG Version: 6.00 Build 0)  -->
<svg version="1.1" id="Layer_4" xmlns="http://www.w3.org/2000/svg" xmlns:xlink="http://www.w3.org/1999/xlink" x="0px" y="0px"
	 viewBox="0 0 459 468.5" style="enable-background:new 0 0 459 468.5;" xml:space="preserve">
<style type="text/css">
	.st0{fill:#FFFFFF;}
	.st1{fill:#2F2E3E;}
	.st2{clip-path:url(#SVGID_2_);fill:#FFFFFF;}
	.st3{clip-path:url(#SVGID_2_);fill:#EA6580;}
	.st4{clip-path:url(#SVGID_2_);fill:#2F2E3E;}
	.st5{clip-path:url(#SVGID_2_);}
	.st6{clip-path:url(#SVGID_2_);fill:none;stroke:#2F2E3E;stroke-width:9;stroke-miterlimit:10;}
	.st7{fill:#CB4960;}
	.st8{fill:none;stroke:#C43F5B;stroke-width:13;stroke-miterlimit:10;}
</style>
<ellipse class="st0" cx="229.5" cy="234.3" rx="229.5" ry="234.3"/>
<path class="st1" d="M171.3,103.1c0,0-23.4-34.3-73.5,7.4c-4.2,3.5-16.5,31.6-19.3,34.8S28.9,185,28.5,213.8s33.8,41.5,45.4,40.8
	s31.6,8.1,43.9-32.3c0,0-0.7-52.7,15.8-77.3S161.4,103.4,171.3,103.1z"/>
<path class="st1" d="M292.2,99.1c0,0,23.4-34.3,73.5,7.4c4.2,3.5,16.5,31.6,19.3,34.8c2.8,3.2,49.6,39.7,49.9,68.6
	s-33.8,41.5-45.4,40.8c-11.6-0.7-31.6,8.1-43.9-32.3c0,0,0.7-52.7-15.8-77.3C313.3,116.3,302,99.4,292.2,99.1z"/>
<g>
	<defs>
		<path id="SVGID_1_" d="M257.9,413.7h-50.3c-43.9,0-79.6-35.6-79.6-79.6v-171c0-43.9,35.6-79.6,79.6-79.6h50.3
			c43.9,0,79.6,35.6,79.6,79.6v171C337.4,378.1,301.8,413.7,257.9,413.7z"/>
	</defs>
	<clipPath id="SVGID_2_">
		<use xlink:href="#SVGID_1_"  style="overflow:visible;"/>
	</clipPath>
	<rect x="49.3" y="36.1" class="st2" width="356.5" height="400.8"/>
	<polygon class="st3" points="221.8,272.2 201.4,284.4 205,306.9 239.1,313.2 258.9,305.7 261.8,284.6 248.9,278.5 234.2,261.4 	"/>
	<path class="st4" d="M208,239.1c-5.6-10-4.9-18.6-4.9-18.6c-2.7-6.9,5-15.5,12.3-15.5h31.1c7.2,0,18.5,7.4,16.1,14.2
		c0,0,0.5,9.2-4.9,18.8c0,0-3.6,14.1-25,14.8C210.6,252.8,208,239.1,208,239.1z"/>
	<path class="st6" d="M160.3,249.7c-0.2,21.9,14,34.7,31.2,34.7s41.3-10.2,41.3-32.2"/>
	<path class="st6" d="M305.2,250.2c0.2,21.9-14,34.7-31.2,34.7c-17.2,0-41.3-10.4-41.3-32.3"/>
	<path class="st6" d="M263,283.9v10.5c0,10.4-8.5,18.9-18.9,18.9h-22.6c-10.4,0-18.9-8.5-18.9-18.9v-10.5"/>
</g>
<path class="st1" d="M283.9,195.8h-8.3c-4.6,0-8.4-3.7-8.4-8.4v-29.7c0-4.6,3.7-8.4,8.4-8.4h8.3c4.6,0,8.4,3.7,8.4,8.4v29.7
	C292.2,192.1,288.5,195.8,283.9,195.8z"/>
<path class="st1" d="M189.9,195.8h-8.3c-4.6,0-8.4-3.7-8.4-8.4v-29.7c0-4.6,3.7-8.4,8.4-8.4h8.3c4.6,0,8.4,3.7,8.4,8.4v29.7
	C198.3,192.1,194.5,195.8,189.9,195.8z"/>
<path class="st8" d="M137.7,324.3c0,0,94.8,72,188.8,0"/>
</svg>
