<?xml version="1.0" encoding="utf-8"?>
<!-- Generator: Adobe Illustrator 24.0.0, SVG Export Plug-In . SVG Version: 6.00 Build 0)  -->
<svg version="1.1" xmlns="http://www.w3.org/2000/svg" xmlns:xlink="http://www.w3.org/1999/xlink" x="0px" y="0px"
	 viewBox="0 0 459 468.5" style="enable-background:new 0 0 459 468.5;" xml:space="preserve">
<style type="text/css">
	.st0{fill:#0DAE70;}
	.st1{fill:#FFFFFF;}
</style>
<g id="Layer_4">
	<ellipse class="st0" cx="229.5" cy="234.3" rx="229.5" ry="234.3"/>
	<g>
		<g>
			<path class="st1" d="M125.7,191.7v63.5h-9.1v-28.3H80.2v28.3h-9.1v-63.5h9.1V219h36.5v-27.3H125.7z"/>
			<path class="st1" d="M139.1,231.2c0-14.3,10.6-24.5,25-24.5c14.4,0,25,10.2,25,24.5c0,14.3-10.5,24.6-25,24.6
				C149.7,255.8,139.1,245.5,139.1,231.2z M180.3,231.2c0-10.3-6.9-16.9-16.2-16.9c-9.3,0-16.2,6.6-16.2,16.9c0,10.3,7,17,16.2,17
				C173.4,248.2,180.3,241.4,180.3,231.2z"/>
			<path class="st1" d="M246,207.1v48.1h-8.3V248c-3.5,5-9.5,7.8-16.3,7.8c-12.4,0-20.7-6.8-20.7-21v-27.7h8.7v26.7
				c0,9.4,4.7,14.2,13,14.2c9.1,0,14.9-5.6,14.9-16v-24.9H246z"/>
			<path class="st1" d="M256.5,250.2l3.6-6.9c4.1,2.9,10.6,5,16.9,5c8.1,0,11.4-2.4,11.4-6.5c0-10.8-30.4-1.5-30.4-20.6
				c0-8.6,7.7-14.4,20.1-14.4c6.3,0,13.3,1.6,17.5,4.4l-3.7,6.9c-4.4-2.8-9.2-3.8-13.9-3.8c-7.6,0-11.3,2.8-11.3,6.6
				c0,11.3,30.5,2.1,30.5,20.8c0,8.7-8,14.2-20.8,14.2C268.4,255.8,260.5,253.3,256.5,250.2z"/>
			<path class="st1" d="M306.5,192.3c0-3.2,2.5-5.7,5.9-5.7c3.4,0,5.9,2.4,5.9,5.5c0,3.3-2.5,5.8-5.9,5.8
				C309,197.9,306.5,195.4,306.5,192.3z M308,207.1h8.7v48.1H308V207.1z"/>
			<path class="st1" d="M341.9,203v4.2h14.1v7.2h-13.9v40.9h-8.7v-52.4c0-9.3,5.6-15.5,15.9-15.5c3.7,0,7.4,0.9,9.8,2.8l-2.6,6.6
				c-1.8-1.4-4.2-2.3-6.7-2.3C344.5,194.5,341.9,197.4,341.9,203z"/>
			<path class="st1" d="M408.9,207.1v41.6c0,17-8.1,24.7-23.6,24.7c-8.3,0-313.8,1.7-318.9-3.1l-0.5-6.7
				c4.2,3.8,312.2,2.1,318.9,2.1c10.6,0,15.3-5.2,15.3-16.1v-3.5c-3.5,4.6-9.3,7.2-15.9,7.2c-12.4,0-20.7-6.7-20.7-20.9v-25.2h8.7
				v24.2c0,9.3,4.7,14.1,13,14.1c9.1,0,14.9-5.6,14.9-16v-22.3H408.9z"/>
		</g>
	</g>
</g>
<g id="Layer_2">
	<g>
		<polygon class="st1" points="183.4,185 183.4,176.6 210.7,147.1 236.7,176.6 236.7,185 		"/>
		<polygon class="st0" points="198,186 198,177.6 225.4,148.1 251.3,177.6 251.3,186 		"/>
		<polygon class="st1" points="210,185 210,176.6 237.3,147.1 263.3,176.6 263.3,185 		"/>
	</g>
</g>
</svg>
