<svg id="Capa_1" data-name="Capa 1" xmlns="http://www.w3.org/2000/svg" viewBox="0 0 550.8 432.77"><defs><style>.cls-1{fill:#fff;}</style></defs><title>mail</title><path class="cls-1" d="M501.61,491.78a47.09,47.09,0,0,0,32.23-12.16l-156-156c-3.74,2.68-7.37,5.28-10.8,7.76q-17.52,12.92-28.43,20.13t-29.05,14.76q-18.13,7.53-33.81,7.53h-.61q-15.68,0-33.81-7.53t-29.05-14.76q-10.92-7.21-28.43-20.13c-3.26-2.38-6.87-5-10.77-7.81L17,479.62a47.07,47.07,0,0,0,32.23,12.16Z" transform="translate(0 -59.01)"/><path class="cls-1" d="M31.05,225.3A163,163,0,0,1,0,198.55V436L137.54,298.44Q96.28,269.63,31.05,225.3Z" transform="translate(0 -59.01)"/><path class="cls-1" d="M520.06,225.3q-62.8,42.49-106.75,73.19L550.8,436V198.55A169.29,169.29,0,0,1,520.06,225.3Z" transform="translate(0 -59.01)"/><path class="cls-1" d="M501.61,59H49.18Q25.51,59,12.76,75T0,115q0,19.36,16.9,42t36,35.49q10.44,7.38,63,43.8c18.92,13.11,35.37,24.54,49.51,34.4,12.05,8.4,22.44,15.67,31,21.7l4.59,3.27,8.48,6.11q10,7.21,16.59,11.68t16,10a94.06,94.06,0,0,0,17.67,8.3,49,49,0,0,0,15.37,2.76h.61a49,49,0,0,0,15.37-2.76,93.43,93.43,0,0,0,17.67-8.3q9.38-5.53,16-10t16.6-11.68c3.45-2.5,6.25-4.52,8.47-6.11l4.59-3.27,31.11-21.62L498.25,192.4a145.94,145.94,0,0,0,37.49-37.8q15-22.12,15.06-46.41a47.16,47.16,0,0,0-14.6-34.73Q521.59,59,501.61,59Z" transform="translate(0 -59.01)"/></svg>