<svg id="Layer_1" data-name="Layer 1" xmlns="http://www.w3.org/2000/svg" viewBox="0 0 607 206.05"><defs><style>.cls-1,.cls-16{isolation:isolate;}.cls-1{font-size:38.16px;fill:#fff;font-family:US-Declaration, US Declaration;}.cls-2{fill:#7f3b39;}.cls-3{fill:#7c3a32;}.cls-4{fill:#1f0005;}.cls-5{fill:#914f47;}.cls-6{fill:#a86e70;}.cls-7{fill:#bd878b;}.cls-8{fill:#d8a6a9;}.cls-9{fill:#d8abb3;}.cls-10{fill:#d9aeb9;}.cls-11{fill:#d8b0be;}.cls-12{fill:#d8acb1;}.cls-13{fill:#cb9696;}.cls-14{fill:#8d4c4b;}.cls-15{fill:#7f3f44;}.cls-17{fill:#2d050d;}</style></defs><title>scroll</title><g id="Layer_1-2" data-name="Layer 1-2"><text class="cls-1" transform="translate(129.33 86.06) rotate(-15)">The</text></g><g id="Layer_2-2" data-name="Layer 2-2"><path class="cls-2" d="M589.26,201.92S544.2,221,542.47,219.25s-12.14-91.85-12.14-91.85h32.93Z" transform="translate(0 -15.58)"/><path class="cls-3" d="M530.33,129.13c-1.73,0-22.53,3.47-22.53,3.47s-15.59,60.66-13.86,64.12,5.91,13.76,5.91,13.76,25.29,14,42.62,8.77Z" transform="translate(0 -15.58)"/><path class="cls-4" d="M547.67,184.59s-24.27-8.67-31.2-3.47-20.8,10.4-19.06,17.33a113.38,113.38,0,0,1,2.44,14.07l-9.38-8.87s-3-5,0-13.86c1.74-5.2,1.61-9.24,5.2-17.33,6.93-15.6,12.13-39.86,12.13-39.86l34.67,1.73Z" transform="translate(0 -15.58)"/><path class="cls-5" d="M46.79,112.82c0,2.44,10.4,108.17,10.4,108.17S7.85,213.24,8.26,201.51s5.91-39.86,4.89-48.32S2,120.06,2.75,111.59s-.61-12.84-.61-12.84Z" transform="translate(0 -15.58)"/><path class="cls-6" d="M97.05,117s3.47,101.23,1.74,103.48-41.6.51-41.6.51L46.79,113.53Z" transform="translate(0 -15.58)"/><polygon class="cls-7" points="142.12 91.02 142.22 196.33 98.79 205.41 97.06 101.42 142.12 91.02"/><polygon class="cls-8" points="196.66 80.11 142.12 91.02 142.12 196.74 192.38 184.71 196.66 80.11"/><polygon class="cls-9" points="238.87 70.32 195.84 80.62 192.38 184.61 243.76 174.92 238.87 70.32"/><path class="cls-10" d="M298.1,71.94,239.17,85.8s-.27,105,3.2,105,48.39-7.51,50.32-11.69S298.1,71.94,298.1,71.94Z" transform="translate(0 -15.58)"/><polygon class="cls-11" points="360.49 40.76 298.1 56.36 292.9 163.81 353.86 152.29 360.49 40.76"/><path class="cls-9" d="M419.42,44.21c-3.47,1.73-58.93,12.13-58.93,12.13l-6.93,110.92,63.31-13.46Z" transform="translate(0 -15.58)"/><polygon class="cls-12" points="483.54 19.96 417.68 28.63 415.95 139.55 474.98 127.21 483.54 19.96"/><path class="cls-13" d="M531.86,36.36c.21.91-10.19,94.5-10.19,94.5L474.88,143l8.66-107.45Z" transform="translate(0 -15.58)"/><path class="cls-14" d="M532.07,33.81l-10.4,97.05s62.39,1.74,72.79,19.07S607,163,607,163s-5.61-33.85-10.81-49.45,1.74-71.06,1.74-71.06Z" transform="translate(0 -15.58)"/><polygon class="cls-15" points="563.16 115.79 589.26 186.34 604.35 162.38 604.96 135.98 563.16 115.79"/><polygon class="cls-2" points="13.87 35.56 0 56.36 1.73 82.35 45.57 97.44 13.87 35.56"/><polygon class="cls-15" points="98.79 23.43 83.19 18.23 48.53 19.96 54.34 59.72 95.32 66.75 107.45 39.03 100.52 23.43 98.79 23.43"/><polygon class="cls-4" points="53.73 51.16 69.33 59.82 97.06 54.62 103.99 42.49 100.52 23.43 110.92 37.29 97.06 101.42 57.5 98.46 53.73 51.16"/><polygon class="cls-15" points="48.53 19.96 61.48 98.77 42.21 96.01 13.87 35.56 48.53 19.96"/><g class="cls-16"><path class="cls-17" d="M100.64,147.43q-14,21.12-14.8,27.77Q79.26,194.91,74.57,196l-1.33.31a1.21,1.21,0,0,1-1.64-1q-.45-2,9.36-23.14a34.38,34.38,0,0,1,4.54-13.64q1.55-1.26,8.11-19.37l-.46-2q-5.82,1.35-25,37.25L66,177l-.15-.65q8.67-19.15,24.73-41.39l3.31-.77q.93-.16,3.42,2.7l.62,2.66q-3.68,8.33-2.86,11.87l.15.65.67-.15,1.59-2q2.7-4.06,10.11-14l4.64-1.07,1.44,3.18q-2.49,14.28-5.67,20.89l.66-.15q16.06-23.3,20.28-24.27l.67-.15c.68-.16,1.77.52,3.27,2q1.24,5.43-10.63,29.74-2.73,12.43-2.41,13.85l.16.67,2.66-.61q5.42-4.68,6.23-6.33l1,1.15q-6.09,9.12-14.93,11.16l-1.79-1.69-.15-.66q-.08-14.69,4.08-15.64-.37-1.65,9-21.66l.47-7.11-.15-.66q-6.87,4.41-21.56,30.86-7,18.24-10.31,22l-3.34.77a1.21,1.21,0,0,1-1.64-1l-.61-2.65,5.33-10.33c.63-.14,1.14-1,1.53-2.44l-.16-.67q2.55-3.87,4.85-12.31,8-13.36,7.4-16.4l1-1.64a41.3,41.3,0,0,0-.2-6.94l-.65.16Z" transform="translate(0 -15.58)"/><path class="cls-17" d="M138.46,159.78l1,1.15.3,1.33a83.21,83.21,0,0,0-6.82,15.41l1.48.35,1.31-.3q3.1-1.92,13.08-18.26l3.8-1.56.66-.15.3,1.33q-7.93,13.57-7.33,16.21l.66-.15a18.82,18.82,0,0,0,7.41-6.9l1,1.15q-1.2,4.89-8.42,8.54l-1.31.3q-2.72.63-6-2.08.14.58-5.52,6.13l-3.93.9c-1.69.14-2.89-1.29-3.59-4.27q-1.59-3.16,6.72-15.13Q133.43,160.93,138.46,159.78Z" transform="translate(0 -15.58)"/><path class="cls-17" d="M163.86,143.14l.79-2.27q1.23-4.41,8.74-16.74l2-.46c.92-.07,1.46.27,1.63,1l.62,2.66q.87,3.78-6.07,14.69-14.1,22.4-13.06,26.85l.46,2c.34.85.89,1.2,1.64,1q3.69-.85,9.85-11l.66-.15.3,1.33q-.63,3.13-10.57,13.95-3.31.77-7.42-1.8l-.76-3.32q1-8.41,4.71-13,.12-5,6.39-14.79Zm3.83,3,.69-1.28q6.51-11.31,5.89-14l-1.48-.35-.67.16c-4.31,5.6-6.31,9.1-6,10.47l-.27.5-3.21,8.71.47,2c.54-.12,2-2.09,4.24-5.89Z" transform="translate(0 -15.58)"/><path class="cls-17" d="M198.73,134.1l0-.06,12.79-3.8.37,1.62-12.29,3.68q-5.84,2.53-11.48,4.8l-10.91,20.75c-.74,2.74-.21,4.36,1.57,4.85q9-11.12,9.78-11.3l.37,1.61-11.46,15.13-4.66,1.93-2.18-2.06q-.66-2.87,2.8-11.22l-1.76,2.56a21.27,21.27,0,0,0-3.68,4.77l-.53-2q2-3.13,14.58-22.35a.73.73,0,0,1-1-.61l-1.43,1.17-.82.19a.74.74,0,0,1-1-.61,11.89,11.89,0,0,1-3.95,2.19l-2.44.43,0,.12-2.43.56-3.86,1.76-1.2-1.45c-.08-1.12.33-1.78,1.24-2l5-.42,2.3-1.26q11-2.1,13.81-11.31L194.13,118l2.44-.57c1.14-.09,1.82.32,2,1.24l-7.48,16.59,1.91.06,3.25-.75Z" transform="translate(0 -15.58)"/><path class="cls-17" d="M193.08,147.17c.85-.06,1.36.26,1.52,1L195,150q-4.54,11.29-3.94,13.93l.15.61.63-.15q3.48-.8,8-8.08l.61-.15.43,1.85q-2,4.17-9.25,11l-3.7.85c-1.84-.46-2.89-1.31-3.17-2.52q-.13-.57,1.6-4.27l-.14-.61c-1.71,2.13-2.59,3.06-2.66,2.79l-.9-1.11A89,89,0,0,1,193.08,147.17Zm10-27,.89,1.09.43,1.86c-.12,1.32-1.22,2.22-3.27,2.69a1.12,1.12,0,0,1-1.54-.94Q200.21,120.83,203.1,120.16Z" transform="translate(0 -15.58)"/><path class="cls-17" d="M208.1,143.72l2-.45q4.55-1.05,5.44,2.83,2.38-.54,5.27-3.95l2.6-.6a5.81,5.81,0,0,1,4.43,4.45q7.45-7.19,10.48-7.89,2,0,3.14,4.75l.45,1.94q-.3,1.94-5.34,9.44L237,156l2.6-.6q4.3-2.11,7-8.7l.63-.14,1,1.15q-4.38,9.71-13,12.12a6.67,6.67,0,0,1-4.59-2.17l-.31-1.31c.22-3.61,1.23-6.12,3.05-7.53q-.3-1.29.89-5l-.63.15q-3.64,2.25-9.28,13.08a12.24,12.24,0,0,1-4.65,5.37l-1-1.16-.3-1.29,3.8-12a5,5,0,0,1-1.11-1.81l-.65.15q-3.54.81-13.45,18.84l-1.95.45c-1.09.25-1.94-.47-2.54-2.15,2.3-5.77,3.38-9,3.23-9.63a3.2,3.2,0,0,0,1.29-3.72l-1.19.44q-1.06.6-7.38,10.76a.58.58,0,0,1-.8-.48Q195.81,158.79,208.1,143.72Z" transform="translate(0 -15.58)"/><path class="cls-17" d="M258.5,151.52q-.51,1.26-7.11,3.65l-1.33.3c-.62.12-1.77-.79-3.43-2.72q.09-3.36,2.88-11.89,4.08-8.66,9.62-9.93c1.44.12,2.41,1.3,2.93,3.52l.3,1.33q-2.37,5.66-9.18,11.95l-.37,1.48.31,1.33,2.47,1.55,1.2-1,.2-.05q8.79-10.37,9.24-10.47c.63-.4.92,0,.89,1.22A34.56,34.56,0,0,1,258.5,151.52Zm-5.26-6.61q7.33-4.74,6-10.5c-.91.21-1.41.09-1.51-.36Q251.41,137,253.24,144.91Z" transform="translate(0 -15.58)"/><path class="cls-17" d="M282.77,148l-3.13.72a4,4,0,0,1-3.28-3.08l-.59.14a29.89,29.89,0,0,1-5.71,5.8l-1.82.42c-.63.14-1.62-.48-3-1.87l-.28-1.21q-2.18-9.41,13.56-21.73l1.84-.42,2.69.67,16.29-37.72c-.18-.81.53-1.4,2.16-1.77l1.62,1.54.42,1.82q-13.26,31.23-22.38,50l.08,3.17.28,1.21c1-.23,1.62-.1,1.92.4A80.28,80.28,0,0,0,291.14,134l1.3,1.46-.63,1.81q-5,10.62-9.09,11Zm-13.36-2,.43,1.85,1.82-.43a32.22,32.22,0,0,0,9.53-16.94l-2.1-.8q-5,1.16-7.16,10.64Q271.15,140.46,269.41,146Z" transform="translate(0 -15.58)"/><path class="cls-17" d="M298.79,122.76c.85-.05,1.35.27,1.52,1l.42,1.84q-4.55,11.28-3.94,13.92l.14.62.64-.15q3.48-.81,8-8.09l.61-.14.43,1.84q-2,4.17-9.25,11l-3.71.86c-1.83-.47-2.89-1.31-3.17-2.52q-.12-.59,1.6-4.27l-.14-.62c-1.7,2.13-2.59,3.06-2.65,2.79l-.9-1.1A89.47,89.47,0,0,1,298.79,122.76Zm10-27,.9,1.08.43,1.86c-.13,1.32-1.22,2.22-3.28,2.7a1.12,1.12,0,0,1-1.53-.94Q305.92,96.43,308.8,95.76Z" transform="translate(0 -15.58)"/><path class="cls-17" d="M321.33,117.52c1.58,1.09,2.46,2,2.63,2.73,2.53-2.81,4.19-4.31,5-4.5l1.7,1.61-5.8,15.46.29,1.27.64-.15q4.11-1.37,8-8.48L335,126c.28,2.14-.73,4.11-3,5.91q-.15,2-8.63,5.94-3-1.34-3.42-3.24l-1.29.3q-5,5.85-5.35,5.93l-3.17.73q-5.76,1.33-7.07-4.4Q311.52,119.78,321.33,117.52ZM310,138.25a4.8,4.8,0,0,1,1.08,1.78q11.58-9.93,10.8-17.27l-.74-3.2q-5.91,1.36-8.63,12.08C311.76,131.81,310.93,134,310,138.25Z" transform="translate(0 -15.58)"/><path class="cls-17" d="M398.32,78.71q-13.95,21.11-14.79,27.76-6.6,19.71-11.28,20.79l-1.33.31a1.2,1.2,0,0,1-1.63-1q-.46-2,9.35-23.15a34.5,34.5,0,0,1,4.54-13.63q1.54-1.26,8.12-19.37l-.46-2q-5.83,1.35-25,37.25l-2.21,2.6-.15-.66q8.69-19.15,24.73-41.39l3.31-.76c.62-.12,1.77.78,3.43,2.7l.61,2.66q-3.68,8.32-2.86,11.86l.15.66.68-.16,1.58-2q2.7-4.08,10.11-14l4.64-1.08,1.45,3.18q-2.5,14.28-5.67,20.9l.65-.15q16.06-23.29,20.28-24.27l.67-.16c.69-.15,1.78.52,3.27,2Q431.8,73,419.91,97.36q-2.73,12.45-2.4,13.85l.15.68,2.66-.62q5.43-4.68,6.23-6.33l1,1.16q-6.09,9.12-14.92,11.16l-1.79-1.7-.15-.66q-.07-14.67,4.08-15.63-.39-1.67,9-21.67l.47-7.11-.15-.65q-6.87,4.41-21.56,30.85-7,18.25-10.31,22l-3.34.77a1.2,1.2,0,0,1-1.63-1l-.62-2.66,5.33-10.32c.63-.15,1.14-1,1.53-2.45l-.15-.67q2.55-3.87,4.85-12.31,8-13.35,7.39-16.4l1-1.64a42.28,42.28,0,0,0-.2-6.93l-.66.15Z" transform="translate(0 -15.58)"/><path class="cls-17" d="M441.78,89.71q2.39,1.64,2.64,2.73c2.52-2.81,4.19-4.31,5-4.5l1.71,1.61L445.31,105l.3,1.27.63-.15q4.13-1.36,8-8.48l1.2.56q.42,3.21-3,5.91-.15,2-8.63,5.94-3-1.34-3.42-3.24l-1.29.3c-3.34,3.9-5.12,5.88-5.36,5.93l-3.17.73q-5.74,1.34-7.07-4.4Q432,92,441.78,89.71Zm-11.33,20.73a4.94,4.94,0,0,1,1.08,1.78q11.58-9.93,10.79-17.27l-.73-3.2q-5.93,1.38-8.64,12.08C432.22,104,431.38,106.21,430.45,110.44Z" transform="translate(0 -15.58)"/><path class="cls-17" d="M472.7,80.24c.83-.19,1.39.33,1.67,1.58q-5.87,17.34-5.53,21.21,1.26-.3,7.65-11.66l.55,2.2a128.78,128.78,0,0,1-12.42,22.15q-5,16.85-10.47,25.22a29.8,29.8,0,0,1-9.56,9.36c-2.07-.37-3.29-1-3.66-1.76l-.15-.62q1.41-2.23,6.77-15.89l13.26-18.7q1.81-.42,3.1-9.17l-.63.15-5.14,3.13q-3.09.7-4.38-4.86l-.32-2.12.45-1.91q6.11-13,11.16-14.84l.61-.14c.94-.22,2.13.25,3.56,1.4Q472,80.41,472.7,80.24Zm-25,60.88,1.37.33q12.18-15,10.86-20.74,1.23-.28,1.47-4.91Q450.49,128.54,447.68,141.12Zm13.18-38.86q3.56-2.55,6.84-9.79l-.9-1.08a3.59,3.59,0,0,0-.9-4l-2.34.2A21.28,21.28,0,0,0,460.86,102.26Z" transform="translate(0 -15.58)"/><path class="cls-17" d="M486.93,98.78q-.51,1.26-7.11,3.65l-1.33.31q-.93.17-3.43-2.72.09-3.36,2.88-11.9,4.08-8.66,9.62-9.93c1.44.13,2.42,1.3,2.93,3.53L490.8,83q-2.39,5.67-9.18,11.95l-.37,1.49.3,1.33L484,99.35l1.2-1,.21,0q8.79-10.36,9.24-10.47c.62-.4.92,0,.88,1.22A34.42,34.42,0,0,1,486.93,98.78Zm-5.25-6.61q7.32-4.74,6-10.49c-.9.2-1.4.08-1.51-.37Q479.85,84.25,481.68,92.17Z" transform="translate(0 -15.58)"/></g></g></svg>