<svg id="Layer_4" data-name="Layer 4" xmlns="http://www.w3.org/2000/svg" viewBox="0 0 459.02 468.5"><defs><style>.cls-1{fill:#e82e08;}.cls-2{fill:#a01705;}.cls-3{fill:#b71f06;}.cls-4{fill:#7c0e05;}</style></defs><title>thoughtanaut</title><ellipse class="cls-1" cx="229.51" cy="234.25" rx="229.51" ry="234.25"/><ellipse class="cls-2" cx="206.71" cy="26.91" rx="18.04" ry="14.25" transform="translate(27.16 132.81) rotate(-37.95)"/><rect class="cls-2" x="193.21" y="14.46" width="153.3" height="191.09" rx="63.9" transform="translate(-10.59 189.22) rotate(-37.95)"/><path class="cls-3" d="M251.46,132.66,211.1,160c0,.53-27.53-35.69-26.65-36.22l33.69-28.6a19.33,19.33,0,0,1,27.21,1.6l7.69,8.7A19.33,19.33,0,0,1,251.46,132.66Z"/><path class="cls-3" d="M278,206.64l-30.35,37.51s-49.11-65.45-56.33-57.77-14.44-10.38-37,15.35,30.24,46,45.13,37.91,39.72,51.51,39.72,51.51L296,266.74s18.51,61.83,0,69.51-49.65-5-71.31-33.4-103.81,64.09-103.81,64.09L81.24,326.32s-3.61,74.47,21.66,84,57.77-48.75,57.77-48.75L157,402.82l-46-.67s46,56.42,61.38,41.52,14.44-83,14.44-83,21.93-23.18,22.38-20.52,51.18,109.34,82.33,94.45,150.31-63.31,122.77-217.55c-6.77-37.91-52.42-77.29-52.42-77.29Z"/><rect class="cls-4" x="207.65" y="143.95" width="40.02" height="62.9" rx="14.82" transform="translate(-59.73 177.09) rotate(-37.95)"/><path class="cls-4" d="M210,125.71l21.26-15.33a3.12,3.12,0,0,1,4.35.71h0a3.11,3.11,0,0,1-.71,4.34l-21.26,15.33a3.11,3.11,0,0,1-4.34-.71h0A3.12,3.12,0,0,1,210,125.71Z"/></svg>