<svg id="Layer_4" data-name="Layer 4" xmlns="http://www.w3.org/2000/svg" viewBox="0 0 459.02 468.5"><defs><style>.cls-1{fill:#0dae70;}.cls-2{fill:#009052;}.cls-3{fill:#15b678;}.cls-4{fill:#3adb9d;}.cls-5{fill:#1fc082;}.cls-6{fill:#009d5f;}.cls-7{fill:#008f51;}.cls-8{fill:#009456;}.cls-9{fill:#04a567;}.cls-10{fill:#0cad6f;}.cls-11{fill:#008d4f;}.cls-12{fill:#009153;}.cls-13{fill:#44e5a7;}.cls-14{fill:#5effc1;}.cls-15{fill:#61ffc4;}.cls-16{fill:#26c789;}.cls-17{fill:#19ba7c;}.cls-18{fill:#12b375;}.cls-19{fill:#08a96b;}.cls-20{fill:#0bad6f;}.cls-21{fill:#18b97c;}.cls-22{fill:#009254;}.cls-23{fill:#00894b;}.cls-24{fill:#009a5d;}.cls-25{fill:#17b87a;}.cls-26{fill:#009b5d;}.cls-27{fill:#009f61;}.cls-28{fill:#00a062;}</style></defs><title>yepti</title><ellipse class="cls-1" cx="229.51" cy="234.25" rx="229.51" ry="234.25"/><polygon class="cls-2" points="228.37 223.34 228.37 286.28 141.22 243.92 228.37 223.34"/><polygon class="cls-3" points="141.22 64.78 202.95 99.88 141.22 143.46 141.22 64.78"/><polygon class="cls-4" points="77.07 98.67 141.22 143.46 141.22 64.78 77.07 98.67"/><polygon class="cls-5" points="77.07 185.82 141.22 143.46 77.07 98.67 77.07 185.82"/><polygon class="cls-6" points="141.22 143.46 202.95 99.88 202.95 185.82 141.22 143.46"/><polygon class="cls-1" points="77.07 185.82 141.22 219.71 141.22 143.46 77.07 185.82"/><polygon class="cls-7" points="141.22 143.46 202.95 185.82 141.22 219.71 141.22 143.46"/><polygon class="cls-8" points="141.22 243.92 141.22 219.71 77.07 185.82 141.22 243.92"/><polygon class="cls-9" points="202.95 185.82 141.22 243.92 141.22 219.71 202.95 185.82"/><polygon class="cls-10" points="202.95 185.82 228.37 223.34 141.22 243.92 202.95 185.82"/><polygon class="cls-11" points="126.69 257.23 141.22 243.92 77.07 185.82 126.69 257.23"/><polygon class="cls-12" points="165.43 276.6 228.37 286.28 141.22 243.92 165.43 276.6"/><polygon class="cls-13" points="315.52 64.78 253.79 99.88 315.52 143.46 315.52 64.78"/><polygon class="cls-14" points="315.52 64.78 315.52 143.46 379.67 98.67 315.52 64.78"/><polygon class="cls-15" points="315.52 143.46 379.67 185.82 379.67 98.67 315.52 143.46"/><polygon class="cls-16" points="315.52 143.46 253.79 99.88 253.79 185.82 315.52 143.46"/><polygon class="cls-17" points="315.52 218.5 379.67 185.82 315.52 143.46 315.52 218.5"/><polygon class="cls-18" points="315.52 143.46 253.79 185.82 315.52 219.71 315.52 143.46"/><polygon class="cls-19" points="315.52 218.5 315.52 243.92 379.67 185.82 315.52 218.5"/><polygon class="cls-20" points="253.79 185.82 315.52 247.55 315.52 218.5 253.79 185.82"/><polygon class="cls-21" points="315.52 243.92 330.04 257.23 379.67 185.82 315.52 243.92"/><polygon class="cls-22" points="299.78 279.02 228.37 286.28 315.52 243.92 299.78 279.02"/><polygon class="cls-23" points="141.22 243.92 165.43 276.6 126.69 257.23 141.22 243.92"/><polygon class="cls-22" points="315.52 243.92 330.04 257.23 299.78 279.02 315.52 243.92"/><polygon class="cls-23" points="165.43 276.6 228.37 341.96 228.37 286.28 165.43 276.6"/><polygon class="cls-24" points="228.37 286.28 299.78 279.02 228.37 341.96 228.37 286.28"/><polygon class="cls-25" points="299.78 279.02 299.78 403.69 228.37 341.96 299.78 279.02"/><polygon class="cls-26" points="165.43 276.6 165.43 403.69 228.37 341.96 165.43 276.6"/><polygon class="cls-27" points="228.37 424.27 299.78 403.69 228.37 341.96 228.37 424.27"/><polygon class="cls-6" points="165.43 403.69 228.37 424.27 228.37 341.96 165.43 403.69"/><polygon class="cls-28" points="253.79 185.82 228.37 223.34 315.52 243.92 253.79 185.82"/><polygon class="cls-6" points="228.37 223.34 228.37 286.28 315.52 243.92 228.37 223.34"/></svg>